<svg width="32" height="32" viewBox="0 0 32 32" fill="none" xmlns="http://www.w3.org/2000/svg">
<path d="M13.7143 3.69148C14.8036 2.77292 16.3964 2.77292 17.4856 3.69149L26.2606 11.0912C26.9196 11.647 27.3 12.4652 27.3 13.3273V25.4301C27.3 26.6865 26.2814 27.7051 25.025 27.7051H20.475C19.2185 27.7051 18.2 26.6865 18.2 25.4301V18.9209C18.2 18.7415 18.0545 18.5959 17.875 18.5959H13.325C13.1455 18.5959 13 18.7415 13 18.9209V25.4301C13 26.6865 11.9814 27.7051 10.725 27.7051H6.17499C4.91854 27.7051 3.89999 26.6865 3.89999 25.4301V13.3273C3.89999 12.4652 4.28031 11.647 4.93937 11.0912L13.7143 3.69148ZM16.2285 5.1822C15.8655 4.87601 15.3345 4.87601 14.9714 5.1822L6.19646 12.5819C5.97677 12.7672 5.84999 13.0399 5.84999 13.3273V25.4301C5.84999 25.6096 5.9955 25.7551 6.17499 25.7551H10.725C10.9045 25.7551 11.05 25.6096 11.05 25.4301V18.9209C11.05 17.6644 12.0685 16.6459 13.325 16.6459H17.875C19.1314 16.6459 20.15 17.6644 20.15 18.9209V25.4301C20.15 25.6096 20.2955 25.7551 20.475 25.7551H25.025C25.2045 25.7551 25.35 25.6096 25.35 25.4301V13.3273C25.35 13.0399 25.2232 12.7672 25.0035 12.5819L16.2285 5.1822Z" fill="#606060"/>
</svg>
