<svg width="32" height="32" viewBox="0 0 32 32" fill="none" xmlns="http://www.w3.org/2000/svg">
<mask id="path-1-inside-1_193_6594" fill="white">
<path fill-rule="evenodd" clip-rule="evenodd" d="M20.8 7.79998C21.1448 7.79998 21.4754 7.93694 21.7192 8.18074C21.963 8.42453 22.1 8.75519 22.1 9.09998V11.7H23.4C24.4343 11.7 25.4263 12.1109 26.1577 12.8423C26.8891 13.5737 27.3 14.5656 27.3 15.6V26C27.6448 26 27.9754 26.1369 28.2192 26.3807C28.463 26.6245 28.6 26.9552 28.6 27.3C28.6 27.6448 28.463 27.9754 28.2192 28.2192C27.9754 28.463 27.6448 28.6 27.3 28.6H3.90001C3.55522 28.6 3.22456 28.463 2.98077 28.2192C2.73697 27.9754 2.60001 27.6448 2.60001 27.3C2.60001 26.9552 2.73697 26.6245 2.98077 26.3807C3.22456 26.1369 3.55522 26 3.90001 26V15.6C3.90001 14.5656 4.3109 13.5737 5.04229 12.8423C5.77368 12.1109 6.76566 11.7 7.80001 11.7H9.10001V9.09998C9.10001 8.75519 9.23697 8.42453 9.48077 8.18074C9.72456 7.93694 10.0552 7.79998 10.4 7.79998C10.7448 7.79998 11.0754 7.93694 11.3192 8.18074C11.563 8.42453 11.7 8.75519 11.7 9.09998V11.7H14.3V9.09998C14.3 8.75519 14.437 8.42453 14.6808 8.18074C14.9246 7.93694 15.2552 7.79998 15.6 7.79998C15.9448 7.79998 16.2754 7.93694 16.5192 8.18074C16.763 8.42453 16.9 8.75519 16.9 9.09998V11.7H19.5V9.09998C19.5 8.75519 19.637 8.42453 19.8808 8.18074C20.1246 7.93694 20.4552 7.79998 20.8 7.79998ZM23.0191 20.4191C22.7277 20.7105 22.3817 20.9417 22.001 21.0994C21.6202 21.2571 21.2121 21.3383 20.8 21.3383C20.3879 21.3383 19.9798 21.2571 19.599 21.0994C19.2183 20.9417 18.8723 20.7105 18.5809 20.4191C18.5309 20.369 18.4715 20.3293 18.4062 20.3022C18.3408 20.2751 18.2708 20.2611 18.2 20.2611C18.1292 20.2611 18.0592 20.2751 17.9938 20.3022C17.9285 20.3293 17.8691 20.369 17.8191 20.4191C17.5277 20.7105 17.1817 20.9417 16.801 21.0994C16.4202 21.2571 16.0121 21.3383 15.6 21.3383C15.1879 21.3383 14.7798 21.2571 14.399 21.0994C14.0183 20.9417 13.6723 20.7105 13.3809 20.4191C13.3309 20.369 13.2715 20.3293 13.2062 20.3022C13.1408 20.2751 13.0708 20.2611 13 20.2611C12.9292 20.2611 12.8592 20.2751 12.7938 20.3022C12.7285 20.3293 12.6691 20.369 12.6191 20.4191C12.3277 20.7105 11.9817 20.9417 11.601 21.0994C11.2202 21.2571 10.8121 21.3383 10.4 21.3383C9.98788 21.3383 9.57979 21.2571 9.19903 21.0994C8.81828 20.9417 8.47232 20.7105 8.18091 20.4191C8.13092 20.369 8.07154 20.3293 8.00619 20.3022C7.94083 20.2751 7.87076 20.2611 7.80001 20.2611C7.72925 20.2611 7.65919 20.2751 7.59383 20.3022C7.52847 20.3293 7.46909 20.369 7.41911 20.4191L6.50001 21.3382V26H24.7V21.3382L23.7809 20.4191C23.7309 20.369 23.6715 20.3293 23.6062 20.3022C23.5408 20.2751 23.4708 20.2611 23.4 20.2611C23.3292 20.2611 23.2592 20.2751 23.1938 20.3022C23.1285 20.3293 23.0691 20.369 23.0191 20.4191ZM23.4 14.3H7.80001C7.48159 14.3 7.17427 14.4169 6.93632 14.6285C6.69838 14.8401 6.54636 15.1316 6.50911 15.4479L6.50001 15.6V17.9426C7.0817 17.678 7.73029 17.5972 8.35912 17.711C8.98795 17.8248 9.56707 18.1279 10.0191 18.5796C10.0691 18.6297 10.1285 18.6694 10.1938 18.6965C10.2592 18.7236 10.3292 18.7375 10.4 18.7375C10.4708 18.7375 10.5408 18.7236 10.6062 18.6965C10.6715 18.6694 10.7309 18.6297 10.7809 18.5796C11.0723 18.2881 11.4183 18.057 11.799 17.8993C12.1798 17.7415 12.5879 17.6604 13 17.6604C13.4121 17.6604 13.8202 17.7415 14.201 17.8993C14.5817 18.057 14.9277 18.2881 15.2191 18.5796C15.2691 18.6297 15.3285 18.6694 15.3938 18.6965C15.4592 18.7236 15.5292 18.7375 15.6 18.7375C15.6708 18.7375 15.7408 18.7236 15.8062 18.6965C15.8715 18.6694 15.9309 18.6297 15.9809 18.5796C16.2723 18.2881 16.6183 18.057 16.999 17.8993C17.3798 17.7415 17.7879 17.6604 18.2 17.6604C18.6121 17.6604 19.0202 17.7415 19.401 17.8993C19.7817 18.057 20.1277 18.2881 20.4191 18.5796C20.4691 18.6297 20.5285 18.6694 20.5938 18.6965C20.6592 18.7236 20.7292 18.7375 20.8 18.7375C20.8708 18.7375 20.9408 18.7236 21.0062 18.6965C21.0715 18.6694 21.1309 18.6297 21.1809 18.5796C21.6047 18.157 22.1402 17.864 22.7246 17.7351C23.309 17.6061 23.9181 17.6465 24.4803 17.8516L24.7 17.9426V15.6C24.7 15.2816 24.5831 14.9742 24.3715 14.7363C24.1599 14.4983 23.8683 14.3463 23.5521 14.3091L23.4 14.3ZM16.25 2.59998C15.925 3.25128 16.0875 3.72188 16.3332 4.12098L16.471 4.33158L16.5425 4.43298C16.7297 4.69688 16.9 4.93998 16.9 5.19998C16.9 5.54476 16.763 5.87542 16.5192 6.11921C16.2754 6.36301 15.9448 6.49998 15.6 6.49998C15.2552 6.49998 14.9246 6.36301 14.6808 6.11921C14.437 5.87542 14.3 5.54476 14.3 5.19998C14.3 4.48238 14.95 3.24998 16.25 2.59998ZM11.05 2.59998C10.725 3.25128 10.8875 3.72188 11.1332 4.12098L11.271 4.33158L11.3425 4.43298C11.5297 4.69688 11.7 4.93998 11.7 5.19998C11.7 5.54476 11.563 5.87542 11.3192 6.11921C11.0754 6.36301 10.7448 6.49998 10.4 6.49998C10.0552 6.49998 9.72456 6.36301 9.48077 6.11921C9.23697 5.87542 9.10001 5.54476 9.10001 5.19998C9.10001 4.48238 9.75001 3.24998 11.05 2.59998ZM21.45 2.59998C21.125 3.25128 21.2875 3.72188 21.5332 4.12098L21.671 4.33158L21.7425 4.43298C21.9297 4.69688 22.1 4.93998 22.1 5.19998C22.1 5.54476 21.963 5.87542 21.7192 6.11921C21.4754 6.36301 21.1448 6.49998 20.8 6.49998C20.4552 6.49998 20.1246 6.36301 19.8808 6.11921C19.637 5.87542 19.5 5.54476 19.5 5.19998C19.5 4.48238 20.15 3.24998 21.45 2.59998Z"/>
</mask>
<path fill-rule="evenodd" clip-rule="evenodd" d="M20.8 7.79998C21.1448 7.79998 21.4754 7.93694 21.7192 8.18074C21.963 8.42453 22.1 8.75519 22.1 9.09998V11.7H23.4C24.4343 11.7 25.4263 12.1109 26.1577 12.8423C26.8891 13.5737 27.3 14.5656 27.3 15.6V26C27.6448 26 27.9754 26.1369 28.2192 26.3807C28.463 26.6245 28.6 26.9552 28.6 27.3C28.6 27.6448 28.463 27.9754 28.2192 28.2192C27.9754 28.463 27.6448 28.6 27.3 28.6H3.90001C3.55522 28.6 3.22456 28.463 2.98077 28.2192C2.73697 27.9754 2.60001 27.6448 2.60001 27.3C2.60001 26.9552 2.73697 26.6245 2.98077 26.3807C3.22456 26.1369 3.55522 26 3.90001 26V15.6C3.90001 14.5656 4.3109 13.5737 5.04229 12.8423C5.77368 12.1109 6.76566 11.7 7.80001 11.7H9.10001V9.09998C9.10001 8.75519 9.23697 8.42453 9.48077 8.18074C9.72456 7.93694 10.0552 7.79998 10.4 7.79998C10.7448 7.79998 11.0754 7.93694 11.3192 8.18074C11.563 8.42453 11.7 8.75519 11.7 9.09998V11.7H14.3V9.09998C14.3 8.75519 14.437 8.42453 14.6808 8.18074C14.9246 7.93694 15.2552 7.79998 15.6 7.79998C15.9448 7.79998 16.2754 7.93694 16.5192 8.18074C16.763 8.42453 16.9 8.75519 16.9 9.09998V11.7H19.5V9.09998C19.5 8.75519 19.637 8.42453 19.8808 8.18074C20.1246 7.93694 20.4552 7.79998 20.8 7.79998ZM23.0191 20.4191C22.7277 20.7105 22.3817 20.9417 22.001 21.0994C21.6202 21.2571 21.2121 21.3383 20.8 21.3383C20.3879 21.3383 19.9798 21.2571 19.599 21.0994C19.2183 20.9417 18.8723 20.7105 18.5809 20.4191C18.5309 20.369 18.4715 20.3293 18.4062 20.3022C18.3408 20.2751 18.2708 20.2611 18.2 20.2611C18.1292 20.2611 18.0592 20.2751 17.9938 20.3022C17.9285 20.3293 17.8691 20.369 17.8191 20.4191C17.5277 20.7105 17.1817 20.9417 16.801 21.0994C16.4202 21.2571 16.0121 21.3383 15.6 21.3383C15.1879 21.3383 14.7798 21.2571 14.399 21.0994C14.0183 20.9417 13.6723 20.7105 13.3809 20.4191C13.3309 20.369 13.2715 20.3293 13.2062 20.3022C13.1408 20.2751 13.0708 20.2611 13 20.2611C12.9292 20.2611 12.8592 20.2751 12.7938 20.3022C12.7285 20.3293 12.6691 20.369 12.6191 20.4191C12.3277 20.7105 11.9817 20.9417 11.601 21.0994C11.2202 21.2571 10.8121 21.3383 10.4 21.3383C9.98788 21.3383 9.57979 21.2571 9.19903 21.0994C8.81828 20.9417 8.47232 20.7105 8.18091 20.4191C8.13092 20.369 8.07154 20.3293 8.00619 20.3022C7.94083 20.2751 7.87076 20.2611 7.80001 20.2611C7.72925 20.2611 7.65919 20.2751 7.59383 20.3022C7.52847 20.3293 7.46909 20.369 7.41911 20.4191L6.50001 21.3382V26H24.7V21.3382L23.7809 20.4191C23.7309 20.369 23.6715 20.3293 23.6062 20.3022C23.5408 20.2751 23.4708 20.2611 23.4 20.2611C23.3292 20.2611 23.2592 20.2751 23.1938 20.3022C23.1285 20.3293 23.0691 20.369 23.0191 20.4191ZM23.4 14.3H7.80001C7.48159 14.3 7.17427 14.4169 6.93632 14.6285C6.69838 14.8401 6.54636 15.1316 6.50911 15.4479L6.50001 15.6V17.9426C7.0817 17.678 7.73029 17.5972 8.35912 17.711C8.98795 17.8248 9.56707 18.1279 10.0191 18.5796C10.0691 18.6297 10.1285 18.6694 10.1938 18.6965C10.2592 18.7236 10.3292 18.7375 10.4 18.7375C10.4708 18.7375 10.5408 18.7236 10.6062 18.6965C10.6715 18.6694 10.7309 18.6297 10.7809 18.5796C11.0723 18.2881 11.4183 18.057 11.799 17.8993C12.1798 17.7415 12.5879 17.6604 13 17.6604C13.4121 17.6604 13.8202 17.7415 14.201 17.8993C14.5817 18.057 14.9277 18.2881 15.2191 18.5796C15.2691 18.6297 15.3285 18.6694 15.3938 18.6965C15.4592 18.7236 15.5292 18.7375 15.6 18.7375C15.6708 18.7375 15.7408 18.7236 15.8062 18.6965C15.8715 18.6694 15.9309 18.6297 15.9809 18.5796C16.2723 18.2881 16.6183 18.057 16.999 17.8993C17.3798 17.7415 17.7879 17.6604 18.2 17.6604C18.6121 17.6604 19.0202 17.7415 19.401 17.8993C19.7817 18.057 20.1277 18.2881 20.4191 18.5796C20.4691 18.6297 20.5285 18.6694 20.5938 18.6965C20.6592 18.7236 20.7292 18.7375 20.8 18.7375C20.8708 18.7375 20.9408 18.7236 21.0062 18.6965C21.0715 18.6694 21.1309 18.6297 21.1809 18.5796C21.6047 18.157 22.1402 17.864 22.7246 17.7351C23.309 17.6061 23.9181 17.6465 24.4803 17.8516L24.7 17.9426V15.6C24.7 15.2816 24.5831 14.9742 24.3715 14.7363C24.1599 14.4983 23.8683 14.3463 23.5521 14.3091L23.4 14.3ZM16.25 2.59998C15.925 3.25128 16.0875 3.72188 16.3332 4.12098L16.471 4.33158L16.5425 4.43298C16.7297 4.69688 16.9 4.93998 16.9 5.19998C16.9 5.54476 16.763 5.87542 16.5192 6.11921C16.2754 6.36301 15.9448 6.49998 15.6 6.49998C15.2552 6.49998 14.9246 6.36301 14.6808 6.11921C14.437 5.87542 14.3 5.54476 14.3 5.19998C14.3 4.48238 14.95 3.24998 16.25 2.59998ZM11.05 2.59998C10.725 3.25128 10.8875 3.72188 11.1332 4.12098L11.271 4.33158L11.3425 4.43298C11.5297 4.69688 11.7 4.93998 11.7 5.19998C11.7 5.54476 11.563 5.87542 11.3192 6.11921C11.0754 6.36301 10.7448 6.49998 10.4 6.49998C10.0552 6.49998 9.72456 6.36301 9.48077 6.11921C9.23697 5.87542 9.10001 5.54476 9.10001 5.19998C9.10001 4.48238 9.75001 3.24998 11.05 2.59998ZM21.45 2.59998C21.125 3.25128 21.2875 3.72188 21.5332 4.12098L21.671 4.33158L21.7425 4.43298C21.9297 4.69688 22.1 4.93998 22.1 5.19998C22.1 5.54476 21.963 5.87542 21.7192 6.11921C21.4754 6.36301 21.1448 6.49998 20.8 6.49998C20.4552 6.49998 20.1246 6.36301 19.8808 6.11921C19.637 5.87542 19.5 5.54476 19.5 5.19998C19.5 4.48238 20.15 3.24998 21.45 2.59998Z" fill="#606060" stroke="#BDDEF1" mask="url(#path-1-inside-1_193_6594)"/>
</svg>
