<svg width="32" height="32" viewBox="0 0 32 32" fill="none" xmlns="http://www.w3.org/2000/svg">
<mask id="path-1-outside-1_193_6582" maskUnits="userSpaceOnUse" x="3.38751" y="1.4375" width="24" height="26" fill="black">
<rect fill="white" x="3.38751" y="1.4375" width="24" height="26"/>
<path d="M25.35 4.3875H21.9375V2.925C21.9375 2.79571 21.8862 2.67171 21.7947 2.58029C21.7033 2.48886 21.5793 2.4375 21.45 2.4375C21.3207 2.4375 21.1967 2.48886 21.1053 2.58029C21.0139 2.67171 20.9625 2.79571 20.9625 2.925V4.3875H10.2375V2.925C10.2375 2.79571 10.1862 2.67171 10.0947 2.58029C10.0033 2.48886 9.87931 2.4375 9.75001 2.4375C9.62072 2.4375 9.49672 2.48886 9.4053 2.58029C9.31387 2.67171 9.26251 2.79571 9.26251 2.925V4.3875H5.85001C5.46213 4.3875 5.09014 4.54158 4.81587 4.81586C4.5416 5.09013 4.38751 5.46212 4.38751 5.85V25.35C4.38751 25.7379 4.5416 26.1099 4.81587 26.3841C5.09014 26.6584 5.46213 26.8125 5.85001 26.8125H25.35C25.7379 26.8125 26.1099 26.6584 26.3842 26.3841C26.6584 26.1099 26.8125 25.7379 26.8125 25.35V5.85C26.8125 5.46212 26.6584 5.09013 26.3842 4.81586C26.1099 4.54158 25.7379 4.3875 25.35 4.3875ZM5.85001 5.3625H9.26251V6.825C9.26251 6.95429 9.31387 7.07829 9.4053 7.16971C9.49672 7.26114 9.62072 7.3125 9.75001 7.3125C9.87931 7.3125 10.0033 7.26114 10.0947 7.16971C10.1862 7.07829 10.2375 6.95429 10.2375 6.825V5.3625H20.9625V6.825C20.9625 6.95429 21.0139 7.07829 21.1053 7.16971C21.1967 7.26114 21.3207 7.3125 21.45 7.3125C21.5793 7.3125 21.7033 7.26114 21.7947 7.16971C21.8862 7.07829 21.9375 6.95429 21.9375 6.825V5.3625H25.35C25.4793 5.3625 25.6033 5.41386 25.6947 5.50529C25.7862 5.59671 25.8375 5.72071 25.8375 5.85V10.2375H5.36251V5.85C5.36251 5.72071 5.41387 5.59671 5.5053 5.50529C5.59672 5.41386 5.72072 5.3625 5.85001 5.3625ZM25.35 25.8375H5.85001C5.72072 25.8375 5.59672 25.7861 5.5053 25.6947C5.41387 25.6033 5.36251 25.4793 5.36251 25.35V11.2125H25.8375V25.35C25.8375 25.4793 25.7862 25.6033 25.6947 25.6947C25.6033 25.7861 25.4793 25.8375 25.35 25.8375ZM16.575 16.0875C16.575 16.2803 16.5178 16.4688 16.4107 16.6292C16.3036 16.7895 16.1513 16.9145 15.9731 16.9883C15.795 17.0621 15.5989 17.0814 15.4098 17.0438C15.2207 17.0061 15.0469 16.9133 14.9106 16.7769C14.7742 16.6406 14.6814 16.4668 14.6437 16.2777C14.6061 16.0886 14.6254 15.8925 14.6992 15.7144C14.773 15.5362 14.898 15.384 15.0583 15.2768C15.2187 15.1697 15.4072 15.1125 15.6 15.1125C15.8586 15.1125 16.1066 15.2152 16.2894 15.3981C16.4723 15.5809 16.575 15.8289 16.575 16.0875ZM21.9375 16.0875C21.9375 16.2803 21.8803 16.4688 21.7732 16.6292C21.6661 16.7895 21.5138 16.9145 21.3356 16.9883C21.1575 17.0621 20.9614 17.0814 20.7723 17.0438C20.5832 17.0061 20.4094 16.9133 20.2731 16.7769C20.1367 16.6406 20.0439 16.4668 20.0062 16.2777C19.9686 16.0886 19.9879 15.8925 20.0617 15.7144C20.1355 15.5362 20.2605 15.384 20.4208 15.2768C20.5812 15.1697 20.7697 15.1125 20.9625 15.1125C21.2211 15.1125 21.4691 15.2152 21.6519 15.3981C21.8348 15.5809 21.9375 15.8289 21.9375 16.0875ZM11.2125 20.9625C11.2125 21.1553 11.1553 21.3438 11.0482 21.5042C10.9411 21.6645 10.7888 21.7895 10.6106 21.8633C10.4325 21.9371 10.2364 21.9564 10.0473 21.9188C9.85817 21.8811 9.68444 21.7883 9.54808 21.6519C9.41173 21.5156 9.31887 21.3418 9.28125 21.1527C9.24363 20.9636 9.26293 20.7675 9.33673 20.5894C9.41052 20.4112 9.53549 20.259 9.69583 20.1518C9.85617 20.0447 10.0447 19.9875 10.2375 19.9875C10.4961 19.9875 10.7441 20.0902 10.9269 20.2731C11.1098 20.4559 11.2125 20.7039 11.2125 20.9625ZM16.575 20.9625C16.575 21.1553 16.5178 21.3438 16.4107 21.5042C16.3036 21.6645 16.1513 21.7895 15.9731 21.8633C15.795 21.9371 15.5989 21.9564 15.4098 21.9188C15.2207 21.8811 15.0469 21.7883 14.9106 21.6519C14.7742 21.5156 14.6814 21.3418 14.6437 21.1527C14.6061 20.9636 14.6254 20.7675 14.6992 20.5894C14.773 20.4112 14.898 20.259 15.0583 20.1518C15.2187 20.0447 15.4072 19.9875 15.6 19.9875C15.8586 19.9875 16.1066 20.0902 16.2894 20.2731C16.4723 20.4559 16.575 20.7039 16.575 20.9625ZM21.9375 20.9625C21.9375 21.1553 21.8803 21.3438 21.7732 21.5042C21.6661 21.6645 21.5138 21.7895 21.3356 21.8633C21.1575 21.9371 20.9614 21.9564 20.7723 21.9188C20.5832 21.8811 20.4094 21.7883 20.2731 21.6519C20.1367 21.5156 20.0439 21.3418 20.0062 21.1527C19.9686 20.9636 19.9879 20.7675 20.0617 20.5894C20.1355 20.4112 20.2605 20.259 20.4208 20.1518C20.5812 20.0447 20.7697 19.9875 20.9625 19.9875C21.2211 19.9875 21.4691 20.0902 21.6519 20.2731C21.8348 20.4559 21.9375 20.7039 21.9375 20.9625Z"/>
</mask>
<path d="M25.35 4.3875H21.9375V2.925C21.9375 2.79571 21.8862 2.67171 21.7947 2.58029C21.7033 2.48886 21.5793 2.4375 21.45 2.4375C21.3207 2.4375 21.1967 2.48886 21.1053 2.58029C21.0139 2.67171 20.9625 2.79571 20.9625 2.925V4.3875H10.2375V2.925C10.2375 2.79571 10.1862 2.67171 10.0947 2.58029C10.0033 2.48886 9.87931 2.4375 9.75001 2.4375C9.62072 2.4375 9.49672 2.48886 9.4053 2.58029C9.31387 2.67171 9.26251 2.79571 9.26251 2.925V4.3875H5.85001C5.46213 4.3875 5.09014 4.54158 4.81587 4.81586C4.5416 5.09013 4.38751 5.46212 4.38751 5.85V25.35C4.38751 25.7379 4.5416 26.1099 4.81587 26.3841C5.09014 26.6584 5.46213 26.8125 5.85001 26.8125H25.35C25.7379 26.8125 26.1099 26.6584 26.3842 26.3841C26.6584 26.1099 26.8125 25.7379 26.8125 25.35V5.85C26.8125 5.46212 26.6584 5.09013 26.3842 4.81586C26.1099 4.54158 25.7379 4.3875 25.35 4.3875ZM5.85001 5.3625H9.26251V6.825C9.26251 6.95429 9.31387 7.07829 9.4053 7.16971C9.49672 7.26114 9.62072 7.3125 9.75001 7.3125C9.87931 7.3125 10.0033 7.26114 10.0947 7.16971C10.1862 7.07829 10.2375 6.95429 10.2375 6.825V5.3625H20.9625V6.825C20.9625 6.95429 21.0139 7.07829 21.1053 7.16971C21.1967 7.26114 21.3207 7.3125 21.45 7.3125C21.5793 7.3125 21.7033 7.26114 21.7947 7.16971C21.8862 7.07829 21.9375 6.95429 21.9375 6.825V5.3625H25.35C25.4793 5.3625 25.6033 5.41386 25.6947 5.50529C25.7862 5.59671 25.8375 5.72071 25.8375 5.85V10.2375H5.36251V5.85C5.36251 5.72071 5.41387 5.59671 5.5053 5.50529C5.59672 5.41386 5.72072 5.3625 5.85001 5.3625ZM25.35 25.8375H5.85001C5.72072 25.8375 5.59672 25.7861 5.5053 25.6947C5.41387 25.6033 5.36251 25.4793 5.36251 25.35V11.2125H25.8375V25.35C25.8375 25.4793 25.7862 25.6033 25.6947 25.6947C25.6033 25.7861 25.4793 25.8375 25.35 25.8375ZM16.575 16.0875C16.575 16.2803 16.5178 16.4688 16.4107 16.6292C16.3036 16.7895 16.1513 16.9145 15.9731 16.9883C15.795 17.0621 15.5989 17.0814 15.4098 17.0438C15.2207 17.0061 15.0469 16.9133 14.9106 16.7769C14.7742 16.6406 14.6814 16.4668 14.6437 16.2777C14.6061 16.0886 14.6254 15.8925 14.6992 15.7144C14.773 15.5362 14.898 15.384 15.0583 15.2768C15.2187 15.1697 15.4072 15.1125 15.6 15.1125C15.8586 15.1125 16.1066 15.2152 16.2894 15.3981C16.4723 15.5809 16.575 15.8289 16.575 16.0875ZM21.9375 16.0875C21.9375 16.2803 21.8803 16.4688 21.7732 16.6292C21.6661 16.7895 21.5138 16.9145 21.3356 16.9883C21.1575 17.0621 20.9614 17.0814 20.7723 17.0438C20.5832 17.0061 20.4094 16.9133 20.2731 16.7769C20.1367 16.6406 20.0439 16.4668 20.0062 16.2777C19.9686 16.0886 19.9879 15.8925 20.0617 15.7144C20.1355 15.5362 20.2605 15.384 20.4208 15.2768C20.5812 15.1697 20.7697 15.1125 20.9625 15.1125C21.2211 15.1125 21.4691 15.2152 21.6519 15.3981C21.8348 15.5809 21.9375 15.8289 21.9375 16.0875ZM11.2125 20.9625C11.2125 21.1553 11.1553 21.3438 11.0482 21.5042C10.9411 21.6645 10.7888 21.7895 10.6106 21.8633C10.4325 21.9371 10.2364 21.9564 10.0473 21.9188C9.85817 21.8811 9.68444 21.7883 9.54808 21.6519C9.41173 21.5156 9.31887 21.3418 9.28125 21.1527C9.24363 20.9636 9.26293 20.7675 9.33673 20.5894C9.41052 20.4112 9.53549 20.259 9.69583 20.1518C9.85617 20.0447 10.0447 19.9875 10.2375 19.9875C10.4961 19.9875 10.7441 20.0902 10.9269 20.2731C11.1098 20.4559 11.2125 20.7039 11.2125 20.9625ZM16.575 20.9625C16.575 21.1553 16.5178 21.3438 16.4107 21.5042C16.3036 21.6645 16.1513 21.7895 15.9731 21.8633C15.795 21.9371 15.5989 21.9564 15.4098 21.9188C15.2207 21.8811 15.0469 21.7883 14.9106 21.6519C14.7742 21.5156 14.6814 21.3418 14.6437 21.1527C14.6061 20.9636 14.6254 20.7675 14.6992 20.5894C14.773 20.4112 14.898 20.259 15.0583 20.1518C15.2187 20.0447 15.4072 19.9875 15.6 19.9875C15.8586 19.9875 16.1066 20.0902 16.2894 20.2731C16.4723 20.4559 16.575 20.7039 16.575 20.9625ZM21.9375 20.9625C21.9375 21.1553 21.8803 21.3438 21.7732 21.5042C21.6661 21.6645 21.5138 21.7895 21.3356 21.8633C21.1575 21.9371 20.9614 21.9564 20.7723 21.9188C20.5832 21.8811 20.4094 21.7883 20.2731 21.6519C20.1367 21.5156 20.0439 21.3418 20.0062 21.1527C19.9686 20.9636 19.9879 20.7675 20.0617 20.5894C20.1355 20.4112 20.2605 20.259 20.4208 20.1518C20.5812 20.0447 20.7697 19.9875 20.9625 19.9875C21.2211 19.9875 21.4691 20.0902 21.6519 20.2731C21.8348 20.4559 21.9375 20.7039 21.9375 20.9625Z" fill="#606060"/>
<path d="M25.35 4.3875H21.9375V2.925C21.9375 2.79571 21.8862 2.67171 21.7947 2.58029C21.7033 2.48886 21.5793 2.4375 21.45 2.4375C21.3207 2.4375 21.1967 2.48886 21.1053 2.58029C21.0139 2.67171 20.9625 2.79571 20.9625 2.925V4.3875H10.2375V2.925C10.2375 2.79571 10.1862 2.67171 10.0947 2.58029C10.0033 2.48886 9.87931 2.4375 9.75001 2.4375C9.62072 2.4375 9.49672 2.48886 9.4053 2.58029C9.31387 2.67171 9.26251 2.79571 9.26251 2.925V4.3875H5.85001C5.46213 4.3875 5.09014 4.54158 4.81587 4.81586C4.5416 5.09013 4.38751 5.46212 4.38751 5.85V25.35C4.38751 25.7379 4.5416 26.1099 4.81587 26.3841C5.09014 26.6584 5.46213 26.8125 5.85001 26.8125H25.35C25.7379 26.8125 26.1099 26.6584 26.3842 26.3841C26.6584 26.1099 26.8125 25.7379 26.8125 25.35V5.85C26.8125 5.46212 26.6584 5.09013 26.3842 4.81586C26.1099 4.54158 25.7379 4.3875 25.35 4.3875ZM5.85001 5.3625H9.26251V6.825C9.26251 6.95429 9.31387 7.07829 9.4053 7.16971C9.49672 7.26114 9.62072 7.3125 9.75001 7.3125C9.87931 7.3125 10.0033 7.26114 10.0947 7.16971C10.1862 7.07829 10.2375 6.95429 10.2375 6.825V5.3625H20.9625V6.825C20.9625 6.95429 21.0139 7.07829 21.1053 7.16971C21.1967 7.26114 21.3207 7.3125 21.45 7.3125C21.5793 7.3125 21.7033 7.26114 21.7947 7.16971C21.8862 7.07829 21.9375 6.95429 21.9375 6.825V5.3625H25.35C25.4793 5.3625 25.6033 5.41386 25.6947 5.50529C25.7862 5.59671 25.8375 5.72071 25.8375 5.85V10.2375H5.36251V5.85C5.36251 5.72071 5.41387 5.59671 5.5053 5.50529C5.59672 5.41386 5.72072 5.3625 5.85001 5.3625ZM25.35 25.8375H5.85001C5.72072 25.8375 5.59672 25.7861 5.5053 25.6947C5.41387 25.6033 5.36251 25.4793 5.36251 25.35V11.2125H25.8375V25.35C25.8375 25.4793 25.7862 25.6033 25.6947 25.6947C25.6033 25.7861 25.4793 25.8375 25.35 25.8375ZM16.575 16.0875C16.575 16.2803 16.5178 16.4688 16.4107 16.6292C16.3036 16.7895 16.1513 16.9145 15.9731 16.9883C15.795 17.0621 15.5989 17.0814 15.4098 17.0438C15.2207 17.0061 15.0469 16.9133 14.9106 16.7769C14.7742 16.6406 14.6814 16.4668 14.6437 16.2777C14.6061 16.0886 14.6254 15.8925 14.6992 15.7144C14.773 15.5362 14.898 15.384 15.0583 15.2768C15.2187 15.1697 15.4072 15.1125 15.6 15.1125C15.8586 15.1125 16.1066 15.2152 16.2894 15.3981C16.4723 15.5809 16.575 15.8289 16.575 16.0875ZM21.9375 16.0875C21.9375 16.2803 21.8803 16.4688 21.7732 16.6292C21.6661 16.7895 21.5138 16.9145 21.3356 16.9883C21.1575 17.0621 20.9614 17.0814 20.7723 17.0438C20.5832 17.0061 20.4094 16.9133 20.2731 16.7769C20.1367 16.6406 20.0439 16.4668 20.0062 16.2777C19.9686 16.0886 19.9879 15.8925 20.0617 15.7144C20.1355 15.5362 20.2605 15.384 20.4208 15.2768C20.5812 15.1697 20.7697 15.1125 20.9625 15.1125C21.2211 15.1125 21.4691 15.2152 21.6519 15.3981C21.8348 15.5809 21.9375 15.8289 21.9375 16.0875ZM11.2125 20.9625C11.2125 21.1553 11.1553 21.3438 11.0482 21.5042C10.9411 21.6645 10.7888 21.7895 10.6106 21.8633C10.4325 21.9371 10.2364 21.9564 10.0473 21.9188C9.85817 21.8811 9.68444 21.7883 9.54808 21.6519C9.41173 21.5156 9.31887 21.3418 9.28125 21.1527C9.24363 20.9636 9.26293 20.7675 9.33673 20.5894C9.41052 20.4112 9.53549 20.259 9.69583 20.1518C9.85617 20.0447 10.0447 19.9875 10.2375 19.9875C10.4961 19.9875 10.7441 20.0902 10.9269 20.2731C11.1098 20.4559 11.2125 20.7039 11.2125 20.9625ZM16.575 20.9625C16.575 21.1553 16.5178 21.3438 16.4107 21.5042C16.3036 21.6645 16.1513 21.7895 15.9731 21.8633C15.795 21.9371 15.5989 21.9564 15.4098 21.9188C15.2207 21.8811 15.0469 21.7883 14.9106 21.6519C14.7742 21.5156 14.6814 21.3418 14.6437 21.1527C14.6061 20.9636 14.6254 20.7675 14.6992 20.5894C14.773 20.4112 14.898 20.259 15.0583 20.1518C15.2187 20.0447 15.4072 19.9875 15.6 19.9875C15.8586 19.9875 16.1066 20.0902 16.2894 20.2731C16.4723 20.4559 16.575 20.7039 16.575 20.9625ZM21.9375 20.9625C21.9375 21.1553 21.8803 21.3438 21.7732 21.5042C21.6661 21.6645 21.5138 21.7895 21.3356 21.8633C21.1575 21.9371 20.9614 21.9564 20.7723 21.9188C20.5832 21.8811 20.4094 21.7883 20.2731 21.6519C20.1367 21.5156 20.0439 21.3418 20.0062 21.1527C19.9686 20.9636 19.9879 20.7675 20.0617 20.5894C20.1355 20.4112 20.2605 20.259 20.4208 20.1518C20.5812 20.0447 20.7697 19.9875 20.9625 19.9875C21.2211 19.9875 21.4691 20.0902 21.6519 20.2731C21.8348 20.4559 21.9375 20.7039 21.9375 20.9625Z" stroke="#606060" mask="url(#path-1-outside-1_193_6582)"/>
</svg>
