<svg width="32" height="32" viewBox="0 0 32 32" fill="none" xmlns="http://www.w3.org/2000/svg">
<path d="M8.25976 6.8399H24.0552C26.0829 6.8399 27.7399 8.42695 27.8518 10.4266L27.8578 10.6424V21.7574C27.8578 23.785 26.2707 25.442 24.271 25.5539L24.0552 25.5599H8.25976C6.23206 25.5599 4.57503 23.9728 4.46317 21.9731L4.45715 21.7574V10.6424C4.45715 8.61476 6.04424 6.95778 8.04398 6.84592L8.25976 6.8399ZM26.1028 13.1263L16.5662 18.1464C16.3469 18.2618 16.0909 18.2783 15.8612 18.1959L15.7488 18.1464L6.2122 13.1275V21.7574C6.2122 22.8317 7.03954 23.7127 8.09182 23.7981L8.25976 23.8049H24.0552C25.1295 23.8049 26.0106 22.9776 26.096 21.9253L26.1028 21.7574V13.1263ZM24.0552 8.5949H8.25976C7.18547 8.5949 6.30441 9.42222 6.21899 10.4745L6.2122 10.6424V11.1443L16.1575 16.3783L26.1028 11.1432V10.6424C26.1028 9.56814 25.2754 8.68711 24.2231 8.60169L24.0552 8.5949Z" fill="#606060"/>
</svg>
