<svg width="32" height="32" viewBox="0 0 32 32" fill="none" xmlns="http://www.w3.org/2000/svg">
<path d="M23.0794 18.2002C24.6941 18.2002 26.003 19.5091 26.003 21.1238V21.8718C26.003 23.0344 25.5875 24.1587 24.8316 25.0419C22.7913 27.4254 19.688 28.6017 15.5991 28.6017C11.5094 28.6017 8.4076 27.425 6.37141 25.0404C5.61771 24.1579 5.20364 23.0353 5.20364 21.8747V21.1238C5.20364 19.5091 6.51255 18.2002 8.12717 18.2002H23.0794ZM23.0794 20.1502H8.12717C7.58951 20.1502 7.15364 20.5861 7.15364 21.1238V21.8747C7.15364 22.5711 7.40209 23.2446 7.85429 23.7741C9.48359 25.6821 12.0392 26.6517 15.5991 26.6517C19.1589 26.6517 21.7167 25.6821 23.3501 23.7739C23.8038 23.2438 24.053 22.5693 24.053 21.8718V21.1238C24.053 20.5861 23.6171 20.1502 23.0794 20.1502ZM15.5991 2.60632C19.1889 2.60632 22.0991 5.51648 22.0991 9.10632C22.0991 12.6962 19.1889 15.6063 15.5991 15.6063C12.0092 15.6063 9.09903 12.6962 9.09903 9.10632C9.09903 5.51648 12.0092 2.60632 15.5991 2.60632ZM15.5991 4.55632C13.0862 4.55632 11.049 6.59344 11.049 9.10632C11.049 11.6192 13.0862 13.6563 15.5991 13.6563C18.112 13.6563 20.1491 11.6192 20.1491 9.10632C20.1491 6.59344 18.112 4.55632 15.5991 4.55632Z" fill="#606060"/>
</svg>
