<svg width="32" height="32" viewBox="0 0 32 32" fill="none" xmlns="http://www.w3.org/2000/svg">
<path d="M20.475 3.39996C22.0904 3.39996 23.4 4.70953 23.4 6.32496V26.475C23.4 28.0903 22.0904 29.4 20.475 29.4H10.725C9.10956 29.4 7.79999 28.0903 7.79999 26.475V6.32496C7.79999 4.70953 9.10956 3.39996 10.725 3.39996H20.475ZM20.475 5.34996H10.725C10.1865 5.34996 9.74999 5.78649 9.74999 6.32496V26.475C9.74999 27.0134 10.1865 27.45 10.725 27.45H20.475C21.0134 27.45 21.45 27.0134 21.45 26.475V6.32496C21.45 5.78649 21.0134 5.34996 20.475 5.34996ZM17.2236 23.55C17.762 23.5492 18.1992 23.9851 18.2 24.5235C18.2008 25.062 17.7649 25.4992 17.2264 25.5L13.9764 25.5049C13.438 25.5057 13.0008 25.0698 13 24.5313C12.9992 23.9929 13.4351 23.5557 13.9736 23.5549L17.2236 23.55Z" fill="#606060"/>
</svg>
